<?xml version="1.0" encoding="utf-8"?>
<!-- Generator: Adobe Illustrator 19.2.1, SVG Export Plug-In . SVG Version: 6.00 Build 0)  -->
<svg version="1.1" id="Layer_1" xmlns="http://www.w3.org/2000/svg" xmlns:xlink="http://www.w3.org/1999/xlink" x="0px" y="0px"
	 viewBox="0 0 512 512" style="enable-background:new 0 0 512 512;" xml:space="preserve">
<style type="text/css">
	.st0{fill:#0054A3;stroke:#002BB5;stroke-miterlimit:10;}
	.st1{fill:#D30505;}
	.st2{fill:#0074E1;}
	.st3{fill:#E8E8E8;}
</style>
<circle class="st0" cx="256" cy="256" r="226.9"/>
<polygon class="st1" points="235.8,235.8 377,135 276.2,276.2 135,377 "/>
<path class="st2" d="M256,0C114.6,0,0,114.6,0,256s114.6,256,256,256s256-114.6,256-256S397.4,0,256,0z M285.8,477.8L256,448
	l-29.8,29.8c-99.7-13.3-178.7-92.3-192-192L64,256l-29.8-29.8c13.3-99.7,92.3-178.7,192-192L256,64l29.8-29.8
	c99.7,13.3,178.7,92.3,192,192L448,256l29.8,29.8C464.4,385.5,385.4,464.4,285.8,477.8z"/>
<polygon class="st3" points="291.8,49.9 260.3,81.4 325.3,146.4 235.9,235.8 276.2,276.1 365.6,186.7 430.6,251.7 462.2,220.2 "/>
</svg>
