<?xml version="1.0" encoding="utf-8"?>
<!-- Generator: Adobe Illustrator 19.2.1, SVG Export Plug-In . SVG Version: 6.00 Build 0)  -->
<svg version="1.1" id="Layer_1" xmlns="http://www.w3.org/2000/svg" xmlns:xlink="http://www.w3.org/1999/xlink" x="0px" y="0px"
	 viewBox="0 0 512 512" style="enable-background:new 0 0 512 512;" xml:space="preserve">
<rect x="240.8" y="128.5" transform="matrix(0.7071 0.7071 -0.7071 0.7071 212.4128 -211.2675)" width="240.9" height="44.6"/>
<path d="M256,0C114.6,0,0,114.6,0,256s114.6,256,256,256s256-114.6,256-256S397.4,0,256,0z M285.8,477.8L256,448l-29.8,29.8
	c-99.7-13.3-178.7-92.3-192-192L64,256l-29.8-29.8c13.3-99.7,92.3-178.7,192-192L256,64l29.8-29.8c99.7,13.3,178.7,92.3,192,192
	L448,256l29.8,29.8C464.4,385.5,385.4,464.4,285.8,477.8z"/>
<rect x="288" y="109.9" transform="matrix(0.7071 0.7071 -0.7071 0.7071 230.9401 -166.5387)" width="57" height="171.1"/>
<polygon points="235.8,235.8 377,135 276.2,276.2 135,377 "/>
</svg>
